<svg width="120" height="121" viewBox="0 0 120 121" fill="none" xmlns="http://www.w3.org/2000/svg">
<path d="M59.27 35.8489C36.1675 32.1863 35.2775 4.50636 35.28 0.203857C35.2825 4.50636 34.3925 32.1863 11.29 35.8489C34.3925 39.5138 35.2825 67.1913 35.28 71.4938C35.2775 67.1938 36.1675 39.5138 59.27 35.8489Z" fill="currentColor"/>
<path d="M107.71 52.5638C85.7225 49.0763 84.875 22.7339 84.8775 18.6389C84.88 22.7339 84.0325 49.0763 62.045 52.5638C84.0325 56.0513 84.88 82.3938 84.8775 86.4888C84.8775 82.3938 85.725 56.0513 107.71 52.5638Z" fill="currentColor"/>
<path d="M56.22 56.8438C56.22 56.8438 56.225 57.0163 56.225 57.3388C56.225 57.0163 56.23 56.8438 56.23 56.8438H56.22Z" fill="currentColor"/>
<path d="M77.38 88.7713C57.0075 85.5413 56.2225 61.1313 56.225 57.3388C56.2275 61.1338 55.4425 85.5413 35.07 88.7713C55.4425 92.0013 56.2275 116.411 56.225 120.204C56.2225 116.409 57.01 92.0013 77.38 88.7713Z" fill="currentColor"/>
</svg>
