<svg width="120" height="120" viewBox="0 0 120 120" fill="none" xmlns="http://www.w3.org/2000/svg">
<path d="M1.48809 113.833C1.93108 116.115 4.02606 118.32 6.28946 118.823C8.20562 119.215 10.1572 119.407 12.113 119.396C14.0694 119.407 16.0218 119.215 17.9387 118.823C20.2137 118.32 22.2971 116.115 22.7378 113.833C23.017 112.449 23.3608 108.568 23.3308 106.004C23.3608 103.441 23.017 99.5649 22.7378 98.1736C22.2971 95.8941 20.2137 93.6883 17.9387 93.1854C16.0221 92.7917 14.0696 92.5991 12.113 92.6109C10.1571 92.6003 8.20551 92.7928 6.28946 93.1854C4.01452 93.6883 1.93108 95.8848 1.48809 98.1736C1.21122 99.558 0.867439 103.441 0.895126 106.004C0.867439 108.575 1.21122 112.444 1.48809 113.833Z" fill="currentColor"/>
<path d="M33.1642 113.856C33.6072 116.138 35.7022 118.341 37.9656 118.847C41.8112 119.609 45.7693 119.609 49.6149 118.847C51.8899 118.341 53.9733 116.138 54.4163 113.856C54.6932 112.472 55.0369 102.52 55.0092 99.9571C55.0369 97.3938 54.6932 87.4472 54.4163 86.0583C53.9733 83.7764 51.8899 81.573 49.6149 81.0677C45.7693 80.3048 41.8112 80.3048 37.9656 81.0677C35.6907 81.573 33.6072 83.7787 33.1642 86.0583C32.8874 87.4426 32.5436 97.3938 32.5713 99.9571C32.5436 102.52 32.8874 112.467 33.1642 113.856Z" fill="currentColor"/>
<path d="M65.1588 113.856C65.6018 116.138 67.6968 118.341 69.9602 118.847C73.8058 119.609 77.7638 119.609 81.6095 118.847C83.8844 118.341 85.9679 116.138 86.4108 113.856C86.6877 112.472 87.0315 92.8024 87.0038 90.239C87.0315 87.6733 86.6877 68.011 86.4108 66.6197C85.9679 64.3402 83.8844 62.1345 81.6095 61.6315C77.7642 60.8655 73.8055 60.8655 69.9602 61.6315C67.6852 62.1345 65.6018 64.3402 65.1588 66.6197C64.8819 68.0041 64.5382 87.6733 64.5682 90.239C64.5382 92.8024 64.8819 112.467 65.1588 113.856Z" fill="currentColor"/>
<path d="M97.1557 113.856C97.5964 116.138 99.6798 118.341 101.955 118.847C105.8 119.609 109.758 119.609 113.604 118.847C115.879 118.341 117.962 116.138 118.405 113.856C118.682 112.472 119.026 83.0842 118.998 80.5186C119.026 77.9552 118.682 48.5725 118.405 47.1835C117.962 44.9016 115.879 42.6959 113.604 42.1929C109.758 41.43 105.8 41.43 101.955 42.1929C99.6798 42.6959 97.5964 44.9016 97.1557 47.1835C96.8765 48.5679 96.5327 77.9552 96.5627 80.5186C96.5327 83.0842 96.8765 112.467 97.1557 113.856Z" fill="currentColor"/>
<path d="M104.707 1.55544L84.8165 8.81172C81.2265 10.1222 80.9588 15.099 84.3897 16.7879L88.0467 18.5921C78.7508 27.3135 68.1329 35.3035 55.7706 42.8897C41.235 51.7426 27.3154 58.2029 13.2135 62.6374C12.5198 62.8556 11.8759 63.2082 11.3185 63.6753C10.761 64.1423 10.3011 64.7145 9.96482 65.3593C9.28571 66.6615 9.1517 68.1801 9.59229 69.5811C10.0329 70.9821 11.0119 72.1507 12.3141 72.8298C13.6163 73.5089 15.1349 73.6429 16.5359 73.2023C31.503 68.4955 46.2233 61.6661 61.548 52.3379C75.1261 44.0064 86.7292 35.1858 96.8765 25.4816L99.9151 29.3093C102.292 32.3087 107.1 30.9867 107.619 27.1982L110.492 6.2253C110.593 5.48446 110.501 4.74001 110.225 4.03501C109.949 3.34002 109.499 2.72803 108.917 2.25833C108.335 1.78862 107.642 1.47711 106.904 1.35397C106.167 1.23083 105.41 1.30022 104.707 1.55544Z" fill="currentColor"/>
</svg>
