<svg width="114" height="129" viewBox="0 0 114 129" fill="none" xmlns="http://www.w3.org/2000/svg">
<path d="M26.4824 71.4817C30.461 71.4817 33.6976 68.2504 33.6976 64.2782V60.5015H52.9645V48.3296C46.6412 46.6567 41.9663 40.8942 41.9663 34.0621C41.9663 27.23 46.6412 21.4677 52.9645 19.7946V0L0 15.0364V60.5015H19.2671V64.2782C19.2671 68.2504 22.5037 71.4817 26.4824 71.4817Z" fill="currentColor"/>
<path d="M60.5305 26.8589H56.7476C52.769 26.8589 49.5324 30.0902 49.5324 34.0624C49.5324 38.0345 52.769 41.2658 56.7476 41.2658H60.5305V60.5012H72.7223C74.3979 54.1883 80.1699 49.521 87.0129 49.521C93.8559 49.521 99.6279 54.1883 101.304 60.5012H113.495V15.0364L60.5305 0V26.8589Z" fill="currentColor"/>
<path d="M94.2284 68.055V64.2782C94.2284 60.3061 90.9917 57.0747 87.0131 57.0747C83.0345 57.0747 79.7979 60.3061 79.7979 64.2782V68.055H60.531V80.2266C66.8543 81.8995 71.5292 87.662 71.5292 94.4941C71.5292 101.326 66.8543 107.089 60.531 108.762V128.972C74.2647 128.076 87.0532 122.311 96.8747 112.505C107.593 101.804 113.495 87.5771 113.495 72.444V68.055H94.2284Z" fill="currentColor"/>
<path d="M52.9647 128.972V101.698H56.7476C60.7262 101.698 63.9629 98.4662 63.9629 94.4941C63.9629 90.522 60.7262 87.2906 56.7476 87.2906H52.9647V68.0552H40.7729C39.0973 74.3681 33.3254 79.0354 26.4824 79.0354C19.6393 79.0354 13.8674 74.3681 12.1915 68.0552H0V72.4443C0 87.5774 5.90285 101.805 16.6208 112.505C26.4425 122.31 39.2307 128.075 52.9647 128.972Z" fill="currentColor"/>
</svg>
