<svg width="120" height="121" viewBox="0 0 120 121" fill="none" xmlns="http://www.w3.org/2000/svg">
<path d="M60 0.279785C26.8641 0.279785 0 27.1438 0 60.2798C0 93.4157 26.8641 120.28 60 120.28C93.1359 120.28 120 93.4157 120 60.2798C120 27.1438 93.1359 0.279785 60 0.279785ZM87.9656 63.6899C82.7953 66.0337 77.6203 68.3657 72.4969 70.8056C71.643 71.2399 70.95 71.9353 70.5188 72.7907C68.1 77.8696 65.7891 83.0001 63.4617 88.1235C62.7797 89.6259 61.9992 90.936 60.0656 90.9548C58.0477 90.9829 57.2344 89.647 56.5242 88.0743C54.2039 82.9509 51.8883 77.8204 49.4672 72.7438C49.0248 71.8935 48.3229 71.2063 47.4633 70.7821C42.3352 68.3446 37.1625 66.0079 31.9945 63.6665C30.5156 62.9985 29.332 62.122 29.3039 60.336C29.2758 58.461 30.5039 57.554 32.0414 56.8579C37.2141 54.5142 42.3891 52.1845 47.5102 49.7446C48.3642 49.3095 49.0571 48.6132 49.4883 47.7571C51.9586 42.5704 54.3188 37.3345 56.6977 32.1056C57.3445 30.6829 58.2 29.5837 59.9437 29.6071C61.6711 29.5415 62.5945 30.5446 63.2555 32.0001C65.632 37.229 67.9875 42.4673 70.4742 47.6423C70.9692 48.5899 71.7509 49.3569 72.7078 49.8337C77.7727 52.2618 82.8984 54.5634 88.0172 56.8813C89.4938 57.5517 90.6773 58.4235 90.7055 60.2142C90.7313 62.0938 89.5055 62.9938 87.9656 63.6899Z" fill="currentColor"/>
</svg>
