<svg width="114" height="151" viewBox="0 0 114 151" fill="none" xmlns="http://www.w3.org/2000/svg">
<path d="M78.8163 113.173C89.2633 113.173 97.7322 104.728 97.7322 94.3109C97.7322 83.8936 89.2633 75.4487 78.8163 75.4487C68.3693 75.4487 59.9004 83.8936 59.9004 94.3109C59.9004 104.728 68.3693 113.173 78.8163 113.173Z" fill="currentColor"/>
<path d="M96.1559 119.46H61.4767C51.9116 119.46 44.1371 127.213 44.1371 136.751V146.182C44.1371 148.785 46.2557 150.897 48.8661 150.897H108.767C111.377 150.897 113.495 148.785 113.495 146.182V136.751C113.495 127.213 105.721 119.46 96.1559 119.46Z" fill="currentColor"/>
<path d="M70.4303 31.437L87.3915 7.41912C88.4004 5.97302 88.5265 4.08681 87.7699 2.51496C86.9502 1.00598 85.3108 0 83.5453 0H18.0962C18.6007 1.4461 18.9159 3.08082 18.9159 4.71554V62.8739H83.5453C85.3108 62.8739 86.9502 61.868 87.7699 60.359C88.5265 58.7871 88.4004 56.9009 87.3915 55.4548L70.4303 31.437Z" fill="currentColor"/>
<path d="M4.72898 150.897C2.11858 150.897 0 148.785 0 146.182V4.71554C0 2.11256 2.11858 0 4.72898 0C7.33938 0 9.45796 2.11256 9.45796 4.71554V146.182C9.45796 148.785 7.33938 150.897 4.72898 150.897Z" fill="currentColor"/>
</svg>
