<svg width="114" height="128" viewBox="0 0 114 128" fill="none" xmlns="http://www.w3.org/2000/svg">
<path d="M0 123.865L0.756455 123.738C0.728805 123.738 0.697243 123.738 0.669593 123.738C0.445004 123.738 0.221198 123.792 0 123.863V123.865Z" fill="currentColor"/>
<path d="M21.7176 12.4371C22.2685 12.9899 22.9897 13.2665 23.7102 13.2665C24.434 13.2665 25.1589 12.9899 25.7104 12.4371C26.813 11.3314 26.813 9.53831 25.7104 8.4326L18.1302 0.829478C17.0276 -0.276493 15.2408 -0.276493 14.1382 0.829478C13.0392 1.93545 13.0356 3.7285 14.1382 4.8342L21.7176 12.4371Z" fill="currentColor"/>
<path d="M93.1899 12.4371L100.769 4.83447C101.872 3.72876 101.868 1.93571 100.769 0.829739C99.6667 -0.276231 97.8799 -0.276231 96.7773 0.829739L89.1971 8.43234C88.0945 9.53804 88.0945 11.3311 89.1971 12.4368C89.7488 12.9897 90.4734 13.2662 91.1973 13.2662C91.9185 13.2665 92.639 12.9899 93.1899 12.4371Z" fill="currentColor"/>
<path d="M1.41196 38.9301V123.394L2.28215 123.244C19.5719 120.728 36.7309 122.067 53.2879 127.221L54.6305 127.634V93.5515C48.3973 92.2375 43.7038 86.6846 43.7038 80.048V74.914C40.8765 72.4585 39.0456 68.8779 39.0422 64.8426C39.0422 62.8716 38.1559 60.9679 36.5454 59.4791C30.5566 53.9527 27.1234 46.2326 26.7412 38.1182C18.2718 36.9107 9.4523 36.9898 1.89636 38.3218C1.58151 38.3812 1.41196 38.5824 1.41196 38.9301ZM14.8346 60.4708H25.1983C26.7579 60.4708 28.0256 61.7384 28.0256 63.3025C28.0256 64.8666 26.7579 66.1346 25.1983 66.1346H14.8346C13.2758 66.1346 12.0081 64.8669 12.0081 63.3025C12.0081 61.7382 13.2758 60.4708 14.8346 60.4708ZM14.831 80.7749H33.2619C34.8215 80.7749 36.085 82.0428 36.085 83.6069C36.085 85.1708 34.8215 86.4387 33.2619 86.4387H14.831C13.2714 86.4387 12.0078 85.1708 12.0078 83.6069C12.0078 82.0428 13.2714 80.7749 14.831 80.7749ZM14.8268 99.7757H38.5065C40.0661 99.7757 41.3338 101.043 41.3338 102.608C41.3338 104.172 40.0661 105.44 38.5065 105.44H14.8268C13.268 105.44 12.0078 104.172 12.0078 102.608C12.0078 101.044 13.268 99.7757 14.8268 99.7757Z" fill="currentColor"/>
<path d="M65.5099 80.0483V77.8549C64.5408 78.0784 63.5449 78.2236 62.5138 78.2236H52.3861C51.3386 78.2236 50.3273 78.0721 49.3504 77.841V80.0483C49.3504 84.5389 52.9887 88.1883 57.4617 88.1883C61.8992 88.188 65.5099 84.5389 65.5099 80.0483Z" fill="currentColor"/>
<path d="M62.5138 72.56C66.758 72.56 70.2111 69.1003 70.2111 64.8428C70.2111 61.2724 71.7467 57.8839 74.5422 55.3088C79.708 50.538 82.6733 43.7567 82.6733 36.7106C82.6733 29.8267 79.9647 23.385 75.0467 18.5826C70.2904 13.9379 64.0692 11.4062 57.4541 11.4062C57.2217 11.4062 56.9893 11.4104 56.7613 11.4182C43.3423 11.7775 32.3372 23.0297 32.2271 36.4973C32.1679 43.6261 35.1371 50.4864 40.3658 55.3124C43.1535 57.8878 44.6891 61.2724 44.6891 64.8428C44.6891 69.0964 48.1458 72.56 52.3864 72.56H54.6268V55.1468C54.6268 53.583 55.8911 52.315 57.4499 52.315C59.0095 52.315 60.2739 53.5827 60.2739 55.1468V72.5603H62.5138V72.56ZM56.5086 25.9758C54.949 26.0467 53.6502 24.7869 53.6105 23.2228C53.5675 21.659 54.7958 20.3557 56.3552 20.312C61.3397 20.3832 66.1077 22.7372 68.7856 26.9947C69.6127 28.3178 69.2186 30.0635 67.9034 30.8968C67.431 31.1933 66.9111 31.3351 66.3996 31.3351C65.4624 31.3351 64.5447 30.8652 64.0053 30.012C62.3914 27.4413 59.6038 25.8537 56.5086 25.9758Z" fill="currentColor"/>
<path d="M113.495 123.394V38.9301C113.495 38.5824 113.326 38.3812 112.971 38.3139C104.884 36.9884 96.5329 36.9607 88.1738 38.1235C87.7958 46.2308 84.3386 53.9579 78.3618 59.4755C76.7471 60.9681 75.8571 62.8719 75.8571 64.8428C75.8571 68.8999 74.0067 72.4967 71.1559 74.953V80.0483C71.1559 86.6859 66.4781 92.2388 60.2767 93.552V127.682C77.1447 122.298 95.1152 120.669 112.46 123.244L113.495 123.394ZM97.7654 105.416H76.3926C74.8338 105.416 73.5661 104.148 73.5661 102.584C73.5661 101.02 74.8338 99.7519 76.3926 99.7519H97.7654C99.325 99.7519 100.592 101.02 100.592 102.584C100.592 104.148 99.325 105.416 97.7654 105.416ZM100.081 86.4387H81.6453C80.0865 86.4387 78.8222 85.1708 78.8222 83.6069C78.8222 82.0428 80.0865 80.7749 81.6453 80.7749H100.081C101.639 80.7749 102.9 82.0428 102.9 83.6069C102.899 85.1708 101.639 86.4387 100.081 86.4387ZM100.081 67.4454H89.7094C88.1498 67.4454 86.8899 66.1777 86.8899 64.6136C86.8899 63.0498 88.1501 61.7818 89.7094 61.7818H100.081C101.639 61.7818 102.904 63.0498 102.904 64.6136C102.904 66.1775 101.639 67.4454 100.081 67.4454Z" fill="currentColor"/>
</svg>
