<svg width="120" height="120" viewBox="0 0 120 120" fill="none" xmlns="http://www.w3.org/2000/svg">
<path d="M119.716 21.7748C118.019 11.3442 108.765 3.24704 98.3535 2.32267C98.2502 2.31329 98.1463 2.30884 98.0425 2.30884H21.9719C21.8681 2.30884 21.7643 2.31353 21.6609 2.32267C9.53671 3.40899 -0.799224 14.0625 0.0487445 26.5277C0.566947 34.143 5.38241 41.5186 12.4291 44.5598C13.004 44.808 13.5935 45.0276 14.1944 45.2189V53.3702C14.1944 55.3113 15.7683 56.8851 17.7094 56.8851H19.9645V114.435C19.9645 116.377 21.5383 117.95 23.4794 117.95H96.5346C98.4756 117.95 100.049 116.377 100.049 114.435V56.8854H102.305C104.246 56.8854 105.82 55.3115 105.82 53.3704V45.2191C110.672 43.6741 114.825 40.1402 117.314 35.7148C119.679 31.5084 120.49 26.5289 119.716 21.7748ZM38.0278 110.921H26.9948V56.8854H38.0278V110.921ZM56.4923 110.921H45.0576V56.8854H56.4923V110.921ZM74.9568 110.921H63.5221V56.8854H74.9568V110.921ZM93.0199 110.92H81.9869V56.8854H93.0199V110.92ZM98.7902 49.8558H21.2247V46.0955C21.6183 46.0706 22.012 46.035 22.4062 45.986C24.0084 45.7865 25.5979 45.3663 27.131 44.7365C28.5841 44.1396 29.9693 43.3378 31.2476 42.3537C31.263 42.3417 31.2778 42.3293 31.2933 42.3173H88.7217C88.7369 42.3293 88.7519 42.3417 88.7671 42.3537C90.0456 43.338 91.4308 44.1398 92.8837 44.7368C94.4167 45.3665 96.0063 45.7868 97.6085 45.9862C98.0027 46.0352 98.3964 46.072 98.7899 46.0969V49.8558H98.7902ZM112.841 26.85C112.214 32.9271 107.31 38.4426 101.081 39.0302C95.7095 39.5369 89.8706 35.6887 89.2347 30.1144C89.1487 29.3623 89.1684 28.5469 89.291 27.7575C89.6446 25.481 91.0232 23.3023 93.059 22.1787C94.776 21.2311 96.9653 21.1034 98.7046 22.0087C99.7167 22.5354 100.579 23.4387 100.835 24.5501C101.572 27.7437 96.5172 28.1294 98.0359 31.8023C98.778 33.5962 100.834 34.4491 102.627 33.7069C103.355 33.4059 104.107 32.9569 104.691 32.475C105.333 31.9448 105.932 31.2862 106.377 30.6201C109.057 26.6088 107.997 21.146 104.72 17.779C101.422 14.3913 96.1602 13.5354 91.7791 15.0802C90.6021 15.4955 89.4564 16.0805 88.4662 16.7719C82.7282 20.7783 80.7171 28.6741 83.3099 35.1459C83.3289 35.1935 83.35 35.2404 83.3695 35.2877H36.6445C36.664 35.2406 36.6851 35.1937 36.7038 35.1464C39.7383 27.5674 36.2414 17.9055 28.2347 15.0799C27.1352 14.692 25.9181 14.4438 24.7148 14.3623C23.5938 14.2859 22.3983 14.3707 21.2583 14.607C17.426 15.4001 13.9706 18.1809 12.6609 21.9077C11.4605 25.3235 12.2243 29.4131 14.752 32.0051C16.189 33.4786 18.4598 34.4522 20.3161 33.5637C22.3362 32.5966 22.7765 29.4166 21.0951 27.937C20.6369 27.5337 20.0697 27.2529 19.6758 26.7865C18.7258 25.6624 19.1627 23.8477 20.1973 22.8005C21.3572 21.6262 23.129 21.1481 24.7575 21.416C26.3864 21.6839 27.8585 22.6451 28.9017 23.9243C31.2778 26.838 31.2881 31.3249 29.2038 34.4541C27.1195 37.5832 23.2183 39.2899 19.4653 39.0633C9.66327 38.4712 4.7421 27.6869 8.32522 19.1759C10.6603 13.6301 16.2108 9.91782 22.1351 9.33868H97.8787C99.3463 9.48211 100.811 9.82008 102.233 10.3434C106.197 11.8017 109.585 14.7354 111.406 18.5644C112.637 21.1509 113.13 24.0459 112.841 26.85Z" fill="currentColor"/>
</svg>
