<svg width="120" height="121" viewBox="0 0 120 121" fill="none" xmlns="http://www.w3.org/2000/svg">
<path d="M111.34 51.7952C107.078 51.7952 103.554 54.9659 102.979 59.0644H96.4498C96.297 48.2133 93.9954 37.5618 89.5563 32.242L91.1886 30.6098C94.5591 33.1462 99.2681 32.8176 102.239 29.8465C105.539 26.5465 105.539 21.1914 102.239 17.8916C98.951 14.6034 93.5842 14.6034 90.296 17.8916C87.2544 20.9332 87.0312 25.6541 89.5209 28.9541L87.9002 30.5863C82.5685 26.1355 71.917 23.8456 61.0662 23.6929V17.1636C65.1766 16.588 68.3472 13.065 68.3472 8.80219C68.3472 4.13994 64.554 0.346924 59.892 0.346924C55.2297 0.346924 51.4483 4.14019 51.4483 8.80219C51.4483 13.065 54.6189 16.5883 58.7175 17.1636V23.6929C47.8664 23.8456 37.2149 26.1355 31.8953 30.5863L30.2631 28.9541C32.7527 25.6425 32.5061 20.9098 29.488 17.8916C26.1998 14.6034 20.8447 14.6034 17.5447 17.8916C14.2565 21.1798 14.2331 26.5349 17.5447 29.8465C20.5276 32.8176 25.2367 33.1465 28.5953 30.6098L30.2276 32.242C25.2953 38.1022 23.393 49.5637 23.2521 59.0644H16.8048C16.2293 54.9659 12.7063 51.7952 8.45526 51.7952C3.79302 51.7952 0 55.5885 0 60.2389C0 64.9011 3.79326 68.6942 8.45526 68.6942C12.7065 68.6942 16.2295 65.5235 16.8048 61.4131H23.2521C23.393 70.9254 25.2956 82.3872 30.2276 88.2471L28.5953 89.8794C25.2953 87.3897 20.551 87.6363 17.5447 90.6426C14.2447 93.9426 14.2447 99.2977 17.5447 102.597C20.8329 105.886 26.1998 105.886 29.488 102.597C32.4472 99.638 32.8232 94.9289 30.2631 91.535L31.8953 89.9028C37.2152 94.3418 47.8667 96.6435 58.7175 96.7962V103.326C54.6189 103.901 51.4483 107.424 51.4483 111.687C51.4483 116.349 55.2297 120.131 59.892 120.131C64.5542 120.131 68.3472 116.349 68.3472 111.687C68.3472 107.424 65.1766 103.901 61.0662 103.326V96.7962C71.9173 96.6435 82.5688 94.3536 87.9002 89.9028L89.5324 91.535C87.0312 94.835 87.2542 99.5559 90.2957 102.597C93.5957 105.886 98.9508 105.886 102.239 102.597C105.539 99.2975 105.539 93.9424 102.239 90.6426C99.2327 87.6363 94.4999 87.3779 91.1884 89.8794L89.5561 88.2471C93.9951 82.9273 96.2968 72.2642 96.4495 61.4131H102.979C103.554 65.5235 107.077 68.6942 111.34 68.6942C115.991 68.6942 119.784 64.9009 119.784 60.2389C119.784 55.5885 115.991 51.7952 111.34 51.7952ZM87.1135 87.4604C77.6951 96.8788 42.0888 96.8669 32.6705 87.4604C23.2169 78.0068 23.2287 42.4707 32.6705 33.029C42.0888 23.6106 77.6954 23.6224 87.1135 33.029C96.52 42.4357 96.52 78.0539 87.1135 87.4604Z" fill="currentColor"/>
<path d="M60.7375 38.7129C60.2913 38.2549 59.4928 38.2549 59.0464 38.7129C58.377 39.4058 42.6759 55.6942 42.6759 64.9245C42.6759 74.4134 50.4031 82.129 59.892 82.129C69.3808 82.129 77.108 74.4134 77.108 64.9245C77.108 55.6942 61.407 39.406 60.7375 38.7129ZM59.892 62.5172C62.6164 62.5172 64.8361 64.7368 64.8361 67.4728C64.8361 69.7864 63.2272 71.7357 61.0665 72.2642V73.5444C61.0665 74.1901 60.538 74.7186 59.8922 74.7186C59.2464 74.7186 58.718 74.1901 58.718 73.5444V72.2642C56.5572 71.7239 54.9484 69.7864 54.9484 67.4728C54.9484 66.8271 55.4768 66.2986 56.1226 66.2986C56.7684 66.2986 57.2968 66.8271 57.2968 67.4728C57.2968 68.9055 58.4595 70.0682 59.8922 70.0682C61.3249 70.0682 62.4876 68.9055 62.4876 67.4728C62.4876 66.0401 61.3249 64.8659 59.8922 64.8659C57.1677 64.8659 54.9481 62.6581 54.9481 59.9218C54.9481 57.6083 56.557 55.6705 58.7177 55.1423V53.8505C58.7177 53.2047 59.2462 52.6763 59.892 52.6763C60.538 52.6763 61.0662 53.2047 61.0662 53.8505V55.1423C63.227 55.6708 64.8358 57.6085 64.8358 59.9218C64.8358 60.5794 64.3073 61.096 63.6616 61.096C63.0158 61.096 62.4873 60.5794 62.4873 59.9218C62.4873 58.4891 61.3247 57.3264 59.892 57.3264C58.4593 57.3264 57.2966 58.4891 57.2966 59.9218C57.2966 61.3545 58.4593 62.5172 59.892 62.5172Z" fill="currentColor"/>
</svg>
