<svg width="120" height="120" viewBox="0 0 120 120" fill="none" xmlns="http://www.w3.org/2000/svg">
<path d="M114.974 7.09204C117.748 7.0926 120 9.34423 120 12.1185C120 14.8927 117.748 17.1444 114.974 17.1449H106.86L105.49 28.4544H105.525L97.877 91.2407C97.2734 96.2758 92.983 100.08 87.9027 100.081H84.074C84.5473 101.246 84.8152 102.518 84.8152 103.851C84.8152 109.395 80.306 113.903 74.7623 113.904C69.2181 113.904 64.7094 109.395 64.7094 103.851C64.7094 102.517 64.9771 101.247 65.4506 100.081H33.8096C34.2829 101.246 34.5508 102.518 34.5508 103.851C34.5508 109.395 30.0416 113.903 24.4979 113.904C18.9538 113.904 14.4451 109.395 14.4451 103.851C14.4451 102.408 14.7546 101.038 15.3041 99.7964C13.3418 99.1117 11.9318 97.2495 11.9318 95.0547C11.9318 92.2801 14.1837 90.0282 16.9583 90.0282H87.8978L88.6586 83.7452H20.679C16.8591 83.7452 13.4366 81.233 12.2804 77.6143L0.421103 39.916C-0.433391 37.2018 0.0178097 34.334 1.7268 32.0721C3.38554 29.7604 5.9501 28.4544 8.81486 28.4544H33.3433L22.6376 39.1601C19.7725 42.0252 18.2149 45.7956 18.2149 49.8167C18.2149 53.8379 19.7725 57.6083 22.6376 60.4734C25.5026 63.3381 29.2733 64.8961 33.2942 64.8961C37.315 64.8958 41.086 63.3382 43.9508 60.4734L51.3383 53.0859L51.6917 53.2872C53.8022 54.2917 56.1151 54.8432 58.4264 54.8432C62.4471 54.8429 66.2182 53.2853 69.083 50.4205L70.6881 48.8596C72.3469 49.4627 74.1591 49.8167 76.0189 49.8167C78.0288 49.8166 79.9372 49.4119 81.7964 48.6583C87.426 46.3462 91.0982 40.8697 91.0982 34.7374V28.4544H95.3638L96.8806 15.9325C97.4841 10.8965 101.778 7.09217 106.86 7.09204H114.974Z" fill="currentColor"/>
<path d="M76.0189 17.1449C78.793 17.1455 81.0453 19.3971 81.0453 22.1714V34.7374C81.0453 36.768 79.8228 38.6018 77.9431 39.381C77.3201 39.6372 76.667 39.7637 76.0189 39.7639C74.7123 39.7639 73.425 39.251 72.465 38.2913L69.7359 35.5621L61.9753 43.3177C60.4473 44.8508 58.1085 45.2202 56.1733 44.2602L49.365 40.8536L36.848 53.3706C35.8681 54.3505 34.5806 54.8429 33.2942 54.8432C32.0077 54.8432 30.7204 54.3504 29.7403 53.3706C27.775 51.4053 27.775 48.2282 29.7403 46.2629L44.8197 31.1836C46.3477 29.656 48.6866 29.2711 50.6266 30.2411L57.4348 33.6477L62.6282 28.4544L59.899 25.7252C58.4614 24.2877 58.0302 22.127 58.8092 20.2472C59.5883 18.3723 61.4221 17.1449 63.4528 17.1449H76.0189Z" fill="currentColor"/>
</svg>
