<svg width="120" height="120" viewBox="0 0 120 120" fill="none" xmlns="http://www.w3.org/2000/svg">
<path d="M29 30.8157C25 26.8157 8 25.8157 2.5 25.3157C2 25.3157 1.5 25.3157 1 25.8157C0.5 26.3157 0 27.3157 0 27.8157V72.8157C0 74.3157 1 75.3157 2.5 75.3157H17.5C18.5 75.3157 19.5 74.8157 20 73.8157C20 72.3157 29 45.8157 30 32.8157C30 32.3157 30 31.3157 29 30.8157Z" fill="currentColor"/>
<path d="M69 37.8157C60 33.8157 56 35.8157 48 43.8157C44.5 47.3157 42 52.3157 42.5 54.3157C42.5 54.8157 42.5 54.8157 43.5 55.3157C46 56.3157 49.5 56.8157 53 51.3157C53.5 50.8157 54 50.3157 55 50.3157C56.5 50.3157 57 49.8157 58.5 49.3157C59.5 48.8157 60.5 48.3157 62 47.8157H63C63.5 47.8157 64.5 48.3157 65 48.3157C67.5 50.8157 72 54.3157 76.5 58.3157C83.5 63.8157 90.5 69.8157 94 74.3157H94.5C91 64.3157 85 47.3157 82.5 42.8157C77.5 41.3157 73 39.3157 69 37.8157Z" fill="currentColor"/>
<path d="M117.5 30.3157C98 30.3157 87 35.3157 86.5 35.3157C86 35.8157 85.5 36.3157 85 36.8157C85 37.3157 85 38.3157 85.5 38.8157C88.5 43.8157 98.5 71.3157 100 78.3157C100.5 79.3157 101.5 80.3157 102.5 80.3157H117.5C119 80.3157 120 79.3157 120 77.8157V32.8157C120 31.3157 119 30.3157 117.5 30.3157Z" fill="currentColor"/>
<path d="M72.5 62.3157C68.5 58.8157 64.5 55.8157 61.5 53.3157C61 53.8157 60 53.8157 60 54.3157C58.5 54.8157 58 55.3157 56 55.3157C52 60.3157 47 62.3157 41.5 60.3157C39 59.8157 37.5 57.8157 37 55.8157C36 50.8157 40.5 43.8157 44 40.3157H34C32 50.3157 28.5 63.3157 26 70.3157C28 72.3157 30 74.8157 31.5 75.8157C41 83.8157 52 91.8157 54 93.3157C55.5 94.3157 58.5 95.3157 60 95.3157H61.5L53.5 87.3157C52.5 86.3157 52.5 84.8157 53.5 83.8157C54.5 82.8157 56 82.8157 57 83.8157L67 93.8157C68 94.8157 69 94.3157 70 94.3157C71.5 93.8157 72 92.8157 72.5 91.3157L61 79.8157C60 78.8157 60 77.3157 61 76.3157C62 75.3157 63.5 75.3157 64.5 76.3157L77 88.8157C77.5 89.3157 79.5 89.3157 81 88.8157C81.5 88.3157 82.5 87.8157 83 86.8157L69 72.8157C68 71.8157 68 70.3157 69 69.3157C70 68.3157 71.5 68.3157 72.5 69.3157L87 83.8157C88 84.3157 89 83.8157 90 83.3157C90.5 82.8157 91.5 81.3157 90.5 79.3157C88.5 74.8157 80 68.3157 72.5 62.3157Z" fill="currentColor"/>
</svg>
