<svg width="114" height="114" viewBox="0 0 114 114" fill="none" xmlns="http://www.w3.org/2000/svg">
<path d="M21.2776 28.3739C29.1132 28.3739 35.4652 22.0222 35.4652 14.1869C35.4652 6.35171 29.1132 0 21.2776 0C13.442 0 7.09002 6.35171 7.09002 14.1869C7.09002 22.0222 13.442 28.3739 21.2776 28.3739Z" fill="currentColor"/>
<path d="M92.2156 28.3739C100.051 28.3739 106.403 22.0222 106.403 14.1869C106.403 6.35171 100.051 0 92.2156 0C84.38 0 78.028 6.35171 78.028 14.1869C78.028 22.0222 84.38 28.3739 92.2156 28.3739Z" fill="currentColor"/>
<path d="M56.7466 28.3739C64.5822 28.3739 70.9342 22.0222 70.9342 14.1869C70.9342 6.35171 64.5822 0 56.7466 0C48.911 0 42.559 6.35171 42.559 14.1869C42.559 22.0222 48.911 28.3739 56.7466 28.3739Z" fill="currentColor"/>
<path d="M78.0067 74.1267L74.7791 41.8586C74.4173 38.2125 71.3811 35.4673 67.7278 35.4673H45.7725C42.1121 35.4673 39.076 38.2125 38.7142 41.8515L35.4865 74.1267C35.3872 75.1269 35.7135 76.1129 36.3874 76.8648C37.0542 77.6025 38.0119 78.0282 39.0121 78.0282H42.8924L45.8009 107.111C46.1627 110.743 49.2059 113.495 52.8663 113.495H60.634C64.2944 113.495 67.3306 110.743 67.6923 107.111L70.6008 78.0282H74.4811C75.4884 78.0282 76.439 77.6025 77.1129 76.8648C77.7868 76.12 78.1131 75.1269 78.0067 74.1267Z" fill="currentColor"/>
<path d="M31.138 81.6387C29.1021 79.3688 28.1231 76.3967 28.4211 73.4174L31.6488 41.1492C31.8474 39.1418 32.578 37.3542 33.5073 35.7014C33.0888 35.6234 32.6986 35.4673 32.2588 35.4673H10.3035C6.64311 35.4673 3.60697 38.2125 3.24518 41.8515L0.0175058 74.1267C-0.0818074 75.1269 0.244507 76.1129 0.918418 76.8648C1.58524 77.6025 2.5429 78.0282 3.54312 78.0282H7.42343L10.3319 100.018C10.6937 103.65 13.7369 106.402 17.3973 106.402H25.165C28.8254 106.402 31.8616 103.65 32.2234 100.018L34.3515 83.9441C33.1597 83.3624 32.046 82.6389 31.138 81.6387Z" fill="currentColor"/>
<path d="M113.476 74.1126L110.248 41.8586C109.886 38.2125 106.857 35.4673 103.197 35.4673H81.2415C80.7946 35.4673 80.4044 35.6234 79.9788 35.7014C80.9081 37.3542 81.6387 39.1418 81.8374 41.1492L85.0651 73.4174C85.3701 76.3683 84.3982 79.3617 82.3907 81.5962C81.4685 82.6105 80.3406 83.3412 79.1488 83.9299L81.277 100.004C81.6388 103.643 84.6749 106.388 88.3353 106.388H96.103C99.7634 106.388 102.8 103.636 103.161 100.004L106.07 78.014H109.95C110.957 78.014 111.908 77.5884 112.582 76.8506C113.256 76.1058 113.582 75.1127 113.476 74.1126Z" fill="currentColor"/>
</svg>
