<svg width="120" height="120" viewBox="0 0 120 120" fill="none" xmlns="http://www.w3.org/2000/svg">
<path d="M96.3848 69.6917C83.608 69.6917 73.2109 80.0888 73.2109 92.8655C73.2109 105.642 83.608 116.039 96.3848 116.039C109.161 116.039 120 105.642 120 92.8655C120 80.0888 109.161 69.6917 96.3848 69.6917ZM103.006 96.176H96.3848C94.5549 96.176 93.0742 94.6953 93.0742 92.8655V86.2444C93.0742 84.4145 94.5549 82.9338 96.3848 82.9338C98.2146 82.9338 99.6953 84.4145 99.6953 86.2444V89.5549H103.006C104.836 89.5549 106.316 91.0356 106.316 92.8655C106.316 94.6953 104.836 96.176 103.006 96.176Z" fill="currentColor"/>
<path d="M20.2422 86.2444H13.6211C9.96426 86.2444 7 89.2086 7 92.8655C7 96.5219 9.96426 99.4866 13.6211 99.4866H20.2422C23.899 99.4866 26.8633 96.5219 26.8633 92.8655C26.8633 89.2086 23.899 86.2444 20.2422 86.2444Z" fill="currentColor"/>
<path d="M20.2422 53.1389H13.6211C9.96426 53.1389 7 56.1032 7 59.76C7 63.4164 9.96426 66.3811 13.6211 66.3811H20.2422C23.899 66.3811 26.8633 63.4164 26.8633 59.76C26.8633 56.1032 23.899 53.1389 20.2422 53.1389Z" fill="currentColor"/>
<path d="M20.2422 19.592H13.6211C9.96426 19.592 7 22.5563 7 26.2131C7 29.8695 9.96426 32.8342 13.6211 32.8342H20.2422C23.899 32.8342 26.8633 29.8695 26.8633 26.2131C26.8633 22.5563 23.899 19.592 20.2422 19.592Z" fill="currentColor"/>
<path d="M103.006 3.03931H30.1738C24.6973 3.03931 20.2422 7.49442 20.2422 12.9709C27.5455 12.9709 33.4844 18.9098 33.4844 26.2131C33.4844 33.5164 27.5455 39.4553 20.2422 39.4553V46.5178C27.5455 46.5178 33.4844 52.4567 33.4844 59.76C33.4844 67.0633 27.5455 73.0022 20.2422 73.0022V79.6233C27.5455 79.6233 33.4844 85.5622 33.4844 92.8655C33.4844 100.169 27.5455 106.108 20.2422 106.108C20.2422 111.584 24.6973 116.039 30.1738 116.039H77.8885C71.0582 110.575 66.5898 102.273 66.5898 92.8655C66.5898 76.4357 79.955 63.0706 96.3848 63.0706C102.508 63.0706 108.64 64.9351 113.379 68.1143V12.9709C113.379 7.49442 108.482 3.03931 103.006 3.03931ZM65.6201 75.3428L52.3777 88.5849C51.731 89.2316 50.8839 89.5549 50.0371 89.5549C49.1903 89.5549 48.343 89.2316 47.6966 88.5849L40.1443 81.0327C38.8512 79.7396 38.8512 77.6445 40.1443 76.3514C41.4374 75.0583 43.5325 75.0583 44.8256 76.3514L50.0371 81.563L60.9387 70.6614C62.2318 69.3683 64.327 69.3683 65.6201 70.6614C66.9132 71.9545 66.9132 74.0497 65.6201 75.3428ZM65.6201 48.8584L52.3779 62.1006C51.7312 62.7472 50.8842 63.0706 50.0373 63.0706C49.1905 63.0706 48.3432 62.7472 47.6968 62.1006L40.1445 54.5483C38.851 53.2552 38.851 51.1603 40.1443 49.8672C41.4374 48.5741 43.5325 48.5741 44.8256 49.8672L50.0371 55.0787L60.9387 44.177C62.2318 42.8839 64.327 42.8839 65.6201 44.177C66.9132 45.4701 66.9132 47.5653 65.6201 48.8584ZM65.6201 21.9326L52.3779 35.1748C51.7312 35.8214 50.8842 36.1448 50.0373 36.1448C49.1905 36.1448 48.3432 35.8214 47.6968 35.1748L40.1445 27.6225C38.851 26.3294 38.851 24.2345 40.1443 22.9414C41.4374 21.6483 43.5325 21.6483 44.8256 22.9414L50.0371 28.1529L60.9387 17.2513C62.2318 15.9582 64.327 15.9582 65.6201 17.2513C66.9132 18.5444 66.9132 20.6395 65.6201 21.9326ZM96.3848 56.4495H76.5215C74.6916 56.4495 73.2109 54.9688 73.2109 53.1389C73.2109 51.3091 74.6916 49.8284 76.5215 49.8284H96.3848C98.2146 49.8284 99.6953 51.3091 99.6953 53.1389C99.6953 54.9688 98.2146 56.4495 96.3848 56.4495ZM96.3848 29.5237H76.5215C74.6916 29.5237 73.2109 28.043 73.2109 26.2131C73.2109 24.3833 74.6916 22.9026 76.5215 22.9026H96.3848C98.2146 22.9026 99.6953 24.3833 99.6953 26.2131C99.6953 28.043 98.2146 29.5237 96.3848 29.5237Z" fill="currentColor"/>
</svg>
