<svg width="121" height="121" viewBox="0 0 121 121" fill="none" xmlns="http://www.w3.org/2000/svg">
<path d="M66.3198 90.2218C64.0354 90.7884 61.6464 91.0885 59.1863 91.0885C42.8423 91.0885 29.5941 77.8384 29.5941 61.4963C29.5941 47.796 38.9034 36.2735 51.5415 32.9032V2.79969C22.4646 6.55103 0 31.3987 0 61.4963C0 94.1843 26.4983 120.683 59.1863 120.683C68.2389 120.683 76.8157 118.647 84.4881 115.014L66.3198 90.2218Z" fill="currentColor"/>
<path d="M97.3631 106.718C107.889 97.8212 115.267 85.3193 117.589 71.1136H87.1792C85.651 75.5619 83.0903 79.5285 79.7871 82.7329L97.3631 106.718Z" fill="currentColor"/>
<path d="M120.554 55.589C119.923 48.9669 118.207 42.5067 115.524 36.4729C114.645 34.4985 113.664 32.5695 112.582 30.6959C111.024 27.9929 109.261 25.4045 107.302 22.9582C106.096 21.4518 104.818 19.9966 103.468 18.6027C103.381 18.5119 103.292 18.423 103.207 18.3342C101.041 16.1288 98.7215 14.0971 96.2693 12.2531C94.5931 10.9934 92.8536 9.81864 91.0629 8.73865C83.7833 4.33576 75.6251 1.45118 67.1471 0.357365L64.3651 0V34.7986L64.8686 34.9349L66.1954 35.2883C67.9743 35.7641 69.6802 36.4176 71.2952 37.2291C74.1009 38.6349 76.632 40.5184 78.7782 42.7653C80.2155 44.2639 81.4792 45.9303 82.5414 47.723C84.0952 50.341 85.2187 53.2355 85.8129 56.2998L86.1999 58.2959H120.811L120.554 55.589ZM69.2952 5.67637C75.783 6.85114 81.8997 9.15328 87.4339 12.3636L69.2952 30.5024V5.67637ZM74.938 33.5804L92.6957 15.8228C95.1775 17.655 97.5053 19.6847 99.6534 21.8841L82.263 39.2746C80.1168 37.0455 77.6508 35.1205 74.938 33.5804ZM86.119 44.1375L103.733 26.524C105.671 28.9801 107.409 31.6001 108.923 34.3504L90.1369 53.1368C89.2681 49.9185 87.8999 46.8878 86.119 44.1375ZM98.6366 53.3579L111.745 40.2499C113.445 44.408 114.659 48.799 115.32 53.3579H98.6366Z" fill="currentColor"/>
</svg>
