<svg width="120" height="121" viewBox="0 0 120 121" fill="none" xmlns="http://www.w3.org/2000/svg">
<path d="M101.103 1.25977H19.8968C9.47712 1.25977 1 9.73689 1 20.1568V101.363C1 111.783 9.47712 120.26 19.8968 120.26H101.103C111.523 120.26 120 111.783 120 101.363V20.1568C120 9.73689 111.523 1.25977 101.103 1.25977ZM54.884 71.9692L37.8544 88.999H46.3567C48.4103 88.999 50.0754 90.6639 50.0754 92.7178C50.0754 94.7717 48.4103 96.4365 46.3567 96.4365H28.8767C26.823 96.4365 25.1579 94.7717 25.1579 92.7178V75.2378C25.1579 73.1839 26.823 71.519 28.8767 71.519C30.9304 71.519 32.5954 73.1839 32.5954 75.2378V83.7402L49.6252 66.7105C51.0774 65.2583 53.432 65.2583 54.8842 66.7105C56.3364 68.1626 56.3364 70.5171 54.884 71.9692ZM96.5112 46.2815C96.5112 48.3354 94.8461 50.0003 92.7925 50.0003C90.7388 50.0003 89.0737 48.3354 89.0737 46.2815V37.7795L72.0439 54.8091C71.3178 55.5352 70.3661 55.8984 69.4145 55.8984C68.4628 55.8984 67.5112 55.5354 66.7849 54.8091C65.3327 53.3569 65.3327 51.0022 66.7849 49.5501L83.8147 32.5203H75.3125C73.2588 32.5203 71.5937 30.8554 71.5937 28.8015C71.5937 26.7476 73.2588 25.0828 75.3125 25.0828H92.7925C94.8461 25.0828 96.5112 26.7476 96.5112 28.8015V46.2815Z" fill="currentColor"/>
</svg>
