<svg width="120" height="121" viewBox="0 0 120 121" fill="none" xmlns="http://www.w3.org/2000/svg">
<path d="M119.373 97.05C120.209 97.8857 120.209 99.2572 119.373 100.093C118.945 100.5 118.409 100.714 117.852 100.714C117.295 100.714 116.759 100.5 116.33 100.093L110.545 94.2857H76.0661C74.8876 94.2857 73.9232 95.25 73.9232 96.4286C73.9232 97.6071 74.8876 98.5714 76.0661 98.5714H84.359C83.4161 102.279 80.0518 105 76.0661 105C71.3303 105 67.4947 101.164 67.4947 96.4286C67.4947 91.6929 71.3303 87.8571 76.0661 87.8571C78.2277 87.8571 80.1894 88.676 81.6983 90H87.1911C84.9724 86.1566 80.8199 83.5714 76.0661 83.5714C68.9732 83.5714 63.209 89.3357 63.209 96.4286C63.209 103.521 68.9732 109.286 76.0661 109.286C82.4303 109.286 87.7232 104.657 88.7303 98.5714H99.5304C98.459 110.571 88.3446 120 76.0661 120C63.0589 120 52.4947 109.436 52.4947 96.4286C52.4947 83.4214 63.0589 72.8571 76.0661 72.8571C86.8386 72.8571 95.9416 80.1158 98.7372 90H110.545L116.33 84.1928C117.166 83.3571 118.538 83.3571 119.373 84.1928C120.209 85.0286 120.209 86.4 119.373 87.2356L116.587 90H117.852C119.03 90 119.995 90.9643 119.995 92.1429C119.995 93.3214 119.03 94.2857 117.852 94.2857H116.587L119.373 97.05ZM13.0761 65.6785H13.119C15.2404 65.6785 17.2119 64.6071 18.4119 62.8499L20.4904 59.7643C20.8976 59.1857 21.5619 58.8215 22.269 58.8215H37.0547C37.9548 58.8 38.919 58.7786 39.7332 58.5429C45.7334 57.4071 50.4048 52.5 51.1976 46.4142C51.3476 45.3428 52.2476 44.55 53.319 44.55C54.519 44.55 55.4833 45.5357 55.4833 46.7143C55.4833 46.7999 55.4619 46.8857 55.4619 46.9714C54.4547 54.6643 48.7118 61.0071 40.9976 62.6572C39.6905 62.9786 38.4047 63.1072 37.0547 63.1072H33.6904L30.4975 72.5786C27.9475 80.1215 21.9047 86.1 14.3404 88.5857C13.4619 88.8642 12.8619 89.6785 12.8619 90.6214V98.5714H48.3261C48.2405 97.8643 48.219 97.1571 48.219 96.4286C48.219 81.0642 60.7119 68.5714 76.0761 68.5714C76.4404 68.5714 76.7833 68.5714 77.1476 68.5929V46.6928C77.1476 30.0215 63.9047 16.3715 47.3618 15.75L42.7333 8.7C39.1762 3.27851 33.1119 0 26.619 0H23.4261C22.7404 0 22.0761 0.342793 21.669 0.899957C21.2833 1.47857 21.1762 2.20708 21.4118 2.84989L26.5547 17.4L1.63331 45.3642C-0.338077 47.5928 -0.552449 50.85 1.14049 53.2928L7.80476 62.9142C9.00476 64.65 10.9761 65.6785 13.0761 65.6785ZM48.969 102.857H10.719C7.18327 102.857 4.29045 105.75 4.29045 109.286V113.571C4.29045 117.107 7.18327 120 10.719 120H61.2476C55.1833 116.164 50.6834 110.057 48.969 102.857Z" fill="currentColor"/>
</svg>
