<svg width="120" height="121" viewBox="0 0 120 121" fill="none" xmlns="http://www.w3.org/2000/svg">
<path d="M0.0195989 25.2429C-0.0788493 24.3348 0.210603 23.4273 0.815607 22.7473C1.42061 22.0673 2.284 21.6791 3.18996 21.6796H17.0019C18.1754 21.6796 19.1268 20.7203 19.1268 19.5369C19.1268 18.3535 18.1754 17.3942 17.0019 17.3942H7.43977C6.53394 17.3963 5.66997 17.0098 5.06378 16.331C4.45758 15.6523 4.16641 14.7455 4.26304 13.8373C4.53496 12.1296 6.02985 10.8965 7.74364 10.9661H21.2517C22.4252 10.9661 23.3766 10.0067 23.3766 8.82336C23.3766 7.63998 22.4252 6.68066 21.2517 6.68066H11.6896C10.7838 6.68283 9.91979 6.29624 9.31359 5.6175C8.70739 4.93876 8.41623 4.03198 8.51285 3.12377C8.78389 1.41559 10.2793 0.181954 11.9934 0.252547H43.4612C43.8485 0.255511 44.2277 0.365169 44.5576 0.569667L53.1508 5.7593C54.1397 6.3572 55.2701 6.67547 56.4231 6.68066H76.4992V25.7272L72.8189 22.6888C70.0572 20.5632 66.1725 20.7785 63.6584 23.1966C61.7917 25.0221 61.1429 27.7729 61.9946 30.2504H54.8698C53.1975 30.2575 51.5949 30.927 50.4075 32.1146L30.41 52.1146L30.3675 52.1574L29.4836 53.0402C28.447 54.062 26.7875 54.0506 25.765 53.0145C24.8317 52.0697 24.7407 50.5725 25.5525 49.5197L31.396 42.3203C31.9156 41.6795 32.0227 40.7942 31.6711 40.0462C31.3195 39.2982 30.5722 38.8213 29.7513 38.8212H5.61873C3.9077 38.8886 2.41623 37.6569 2.14451 35.9521C2.04735 35.0447 2.33739 34.1384 2.94225 33.4594C3.54711 32.7804 4.40973 32.3927 5.31487 32.3931H17.0019C18.1754 32.3931 19.1268 31.4338 19.1268 30.2504C19.1268 29.067 18.1754 28.1077 17.0019 28.1077H3.49382C1.7845 28.1744 0.294119 26.9455 0.0195989 25.2429ZM35.3865 118.084C34.4919 118.181 33.5986 117.888 32.9323 117.278C32.2628 116.666 31.8795 115.798 31.8762 114.887V103.102C31.8762 101.919 30.9249 100.96 29.7513 100.96C28.5777 100.96 27.6264 101.919 27.6264 103.102V116.728C27.6847 118.459 26.4529 119.963 24.7556 120.231C23.8628 120.329 22.9713 120.036 22.3077 119.425C21.6367 118.813 21.2533 117.943 21.2517 117.03V103.102C21.2517 101.919 20.3003 100.96 19.1268 100.96C17.9532 100.96 17.0019 101.919 17.0019 103.102V112.77C16.9962 113.679 16.6094 114.542 15.9373 115.148C15.2651 115.753 14.3704 116.043 13.4745 115.946C11.7814 115.672 10.5582 114.166 10.6271 112.438V98.8169C10.6271 97.6336 9.67578 96.6742 8.50223 96.6742C7.32867 96.6742 6.37732 97.6336 6.37732 98.8169V108.478C6.37338 109.388 5.98769 110.253 5.31581 110.859C4.64393 111.466 3.74875 111.757 2.8521 111.66C1.15944 111.387 -0.0640888 109.882 0.00259959 108.155V76.4235C0.00587409 76.0375 0.106024 75.6586 0.293712 75.3222L5.46361 66.6528C6.05531 65.6558 6.37085 64.517 6.37732 63.3552V43.1066H25.2635L22.2482 46.8199C20.3043 49.2042 20.1661 52.5999 21.9096 55.1368C23.6532 57.6737 26.8549 58.7354 29.7513 57.737V64.9193C29.7583 66.6057 30.4223 68.2217 31.6 69.419L51.4168 89.5604C51.4402 89.5862 51.4636 89.6097 51.4891 89.6333L52.3539 90.5118C53.0985 91.276 53.315 92.4164 52.9031 93.4039C52.4913 94.3914 51.5315 95.0329 50.4691 95.0308C49.8909 95.0334 49.3289 94.8377 48.8755 94.4758L41.7379 88.5855C41.1025 88.0504 40.2169 87.9361 39.4683 88.2926C38.7198 88.6491 38.2447 89.4114 38.2509 90.2461V114.581C38.3097 116.31 37.0813 117.813 35.3865 118.084ZM118.98 95.2536C119.079 96.1618 118.789 97.0692 118.184 97.7492C117.579 98.4292 116.716 98.8175 115.81 98.8169H101.998C100.825 98.8169 99.8732 99.7763 99.8732 100.96C99.8732 102.143 100.825 103.102 101.998 103.102H111.56C112.466 103.1 113.33 103.487 113.936 104.165C114.542 104.844 114.834 105.751 114.737 106.659C114.465 108.367 112.97 109.6 111.256 109.53H97.7483C96.5748 109.53 95.6234 110.49 95.6234 111.673C95.6234 112.857 96.5748 113.816 97.7483 113.816H107.31C108.216 113.814 109.08 114.2 109.686 114.879C110.293 115.558 110.584 116.465 110.487 117.373C110.216 119.081 108.721 120.315 107.007 120.244H75.5388C75.1515 120.241 74.7723 120.131 74.4423 119.927L65.8492 114.737C64.8603 114.139 63.7299 113.821 62.5769 113.816H42.5007V94.7651L46.1811 97.8034C48.9403 99.9373 52.8309 99.7216 55.3415 97.2956C57.2088 95.4723 57.8601 92.7236 57.0117 90.2461H64.1302C65.8025 90.239 67.4051 89.5695 68.5925 88.382L88.5836 68.3905L88.658 68.3177L89.5228 67.4606C90.5593 66.4388 92.2189 66.4502 93.2414 67.4863C94.1747 68.4311 94.2657 69.9283 93.4539 70.9811L87.6104 78.1805C87.0942 78.8205 86.9881 79.7025 87.3378 80.4483C87.6874 81.1942 88.4306 81.6714 89.2487 81.6753H113.381C115.092 81.6079 116.584 82.8396 116.855 84.5444C116.953 85.4518 116.663 86.3581 116.058 87.0371C115.453 87.7161 114.59 88.1038 113.685 88.1034H101.998C100.825 88.1034 99.8732 89.0627 99.8732 90.2461C99.8732 91.4295 100.825 92.3888 101.998 92.3888H115.513C117.219 92.3254 118.706 93.5536 118.98 95.2536ZM118.997 44.073C118.994 44.4632 118.886 44.8453 118.685 45.1786L113.536 53.8437C112.944 54.8403 112.628 55.9793 112.623 57.1413V77.3899H93.7301L96.7454 73.6766C98.9341 70.9181 98.7153 66.9412 96.2375 64.4437C94.3813 62.6476 91.6972 62.0238 89.2487 62.8195V55.5772C89.2416 53.8908 88.5777 52.2748 87.4 51.0775L67.5746 30.9061L67.5343 30.8654L66.6567 29.974C66.1588 29.4781 65.8807 28.8004 65.8855 28.0948C65.8903 27.3891 66.1776 26.7154 66.6822 26.2264C67.632 25.3126 69.0967 25.2221 70.15 26.0121L77.2876 31.9024C77.9223 32.4203 78.7952 32.5257 79.5332 32.1734C80.2713 31.8212 80.7439 31.0737 80.7491 30.2504V5.91571C80.6833 4.18998 81.9055 2.68631 83.5964 2.41239C84.496 2.31508 85.3942 2.60784 86.0671 3.21769C86.74 3.82754 87.1241 4.697 87.1238 5.60931V17.3942C87.1238 18.5776 88.0751 19.5369 89.2487 19.5369C90.4222 19.5369 91.3736 18.5776 91.3736 17.3942V3.77301C91.3069 2.04695 92.5295 0.542719 94.221 0.269688C95.1205 0.172376 96.0187 0.46514 96.6916 1.07499C97.3645 1.68483 97.7487 2.5543 97.7483 3.4666V17.3942C97.7483 18.5776 98.6997 19.5369 99.8732 19.5369C101.047 19.5369 101.998 18.5776 101.998 17.3942V7.75201C101.997 6.83896 102.38 5.96834 103.053 5.35754C103.726 4.74674 104.625 4.45342 105.525 4.55081C107.219 4.82402 108.442 6.33075 108.373 8.05842V21.6796C108.373 22.863 109.324 23.8223 110.498 23.8223C111.671 23.8223 112.623 22.863 112.623 21.6796V12.0374C112.621 11.1244 113.005 10.2537 113.678 9.64295C114.351 9.03215 115.25 8.73883 116.15 8.83622C117.842 9.11023 119.064 10.6151 118.997 12.3417V44.073Z" fill="currentColor"/>
</svg>
