<?xml version="1.0" encoding="UTF-8" standalone="no"?>
<!-- Created with Inkscape (http://www.inkscape.org/) -->

<svg
   width="216.44357mm"
   height="52.605366mm"
   viewBox="0 0 216.44357 52.605366"
   version="1.1"
   id="svg1"
   xml:space="preserve"
   xmlns="http://www.w3.org/2000/svg"
   xmlns:svg="http://www.w3.org/2000/svg"><defs
     id="defs1" /><g
     id="layer1"
     transform="translate(-12.46085,-115.98204)"><path
       style="fill:#ffffff;fill-opacity:1;stroke-width:0.845143"
       d="m 102.49472,156.8277 v -11.73957 c 5.30191,0.1851 10.81827,-0.60099 15.90354,1.18188 2.76715,1.17484 4.32218,4.11439 3.88267,7.03414 0.35561,2.5975 -1.35404,5.18513 -3.518,6.47961 1.43927,2.88433 2.93707,5.7407 4.30398,8.66015 -2.60426,0.21386 -5.22631,0.0912 -7.83864,0.1237 -1.25271,-2.60879 -2.50542,-5.21759 -3.75813,-7.82637 -2.41607,-0.73008 -2.15796,1.21404 -2.04349,3.0145 v 4.81187 h -6.93193 z m 11.42193,-1.16413 c 2.93255,-1.78272 0.30213,-6.15728 -2.64521,-5.20794 -2.39564,-0.75874 -1.83596,1.43919 -1.84479,3.06835 -0.35546,1.92787 0.056,3.08882 2.19614,2.52108 0.79092,-0.0707 1.65607,0.24253 2.29386,-0.38149 z m 11.16275,1.16413 v -11.73957 h 16.5472 v 5.81388 h -9.61526 c 0.31482,1.33452 -0.94267,4.24134 1.37023,3.57777 h 7.79781 c -0.17975,1.55142 0.36131,3.82364 -0.27405,4.91944 h -8.89399 c 0.31481,1.33452 -0.94266,4.24134 1.37023,3.57777 h 8.24503 v 5.59027 h -16.5472 z m 19.67775,-0.0286 v -11.76826 c 4.3796,0.18039 8.81623,-0.0211 13.16114,0.39164 5.20753,0.87557 8.80644,6.16809 8.1809,11.29351 0.60229,5.34624 -3.17351,10.94692 -8.66426,11.72812 -4.19457,0.2859 -8.45708,0.0413 -12.67778,0.12324 z m 11.52795,5.62278 c 2.92035,-1.47969 3.11894,-5.61686 2.29403,-8.36827 -0.57276,-2.03087 -2.51622,-3.42624 -4.63617,-3.11094 -2.3067,-0.72871 -2.54568,0.68857 -2.25389,2.6567 v 9.37769 c 1.53649,-0.1526 3.26207,0.42133 4.59603,-0.55518 z m -16.88146,-22.601 c -4.73807,-0.61582 -7.72991,-5.26198 -7.39475,-9.80452 0.0381,-4.55406 0.0762,-9.10811 0.11425,-13.66216 2.34792,-0.0411 4.69582,-0.0821 7.04374,-0.12323 0.0787,5.18459 -0.14403,10.43449 0.1231,15.57823 0.46905,2.29005 2.83525,2.88939 4.72117,2.27615 2.72731,-1.28803 1.49244,-4.42815 1.79317,-6.76693 0.0307,-3.69203 0.0613,-7.38406 0.0919,-11.07609 h 7.13447 c -0.15342,5.93924 0.42443,11.95266 -0.55735,17.82832 -1.59748,5.34949 -8.2213,6.86826 -13.06974,5.75023 z m 24.58404,0.0124 c -5.9061,-0.90178 -9.01231,-7.05649 -8.49505,-12.58181 -0.0991,-4.48665 2.53494,-9.3708 7.06996,-10.60474 2.56703,-1.01915 5.44703,-0.63446 8.0931,-0.29543 4.27143,1.07704 7.42046,5.11306 7.48106,9.50633 h -6.73817 c -0.30917,-2.05269 -1.50097,-4.21107 -3.79045,-4.3553 -2.23974,-0.29969 -4.45532,1.69053 -4.67533,3.92112 -0.70905,2.77229 -0.33495,6.27622 1.72314,8.36423 4.01506,3.19305 5.63572,-2.50748 7.57765,-3.68144 h 5.84158 c 0.39153,4.79218 -3.48467,8.70034 -7.91626,9.79304 -2.01943,0.13327 -4.18208,0.51808 -6.17123,-0.066 z m 49.86521,-0.0149 c -6.58322,-1.1195 -9.85143,-8.58316 -8.41928,-14.63146 0.62928,-5.73837 6.26759,-9.61705 11.83279,-9.16584 5.85725,-0.53024 11.45014,4.41322 11.48775,10.38124 0.64548,4.27848 -0.79255,8.92832 -4.23632,11.65174 -2.59877,1.53871 -5.50064,2.43085 -8.56785,2.05019 -0.70447,-0.0461 -1.40684,-0.13655 -2.09709,-0.28587 z m 4.3604,-5.48819 c 1.96766,-0.52022 3.14514,-2.59087 3.33483,-4.54865 2.27491,-5.40008 -5.38549,-11.87154 -8.5681,-5.43576 -1.86538,3.69953 0.0399,11.0515 5.23327,9.98441 z M 102.49472,127.9819 v -11.73956 h 8.00214 c 1.72536,4.41567 3.34574,8.8742 5.17559,13.24796 2.00842,-4.26821 3.52703,-8.75297 5.27015,-13.13615 2.7206,-0.0406 5.4412,-0.0812 8.1618,-0.12187 v 23.48921 h -6.2611 c -0.007,-4.36041 -0.0139,-8.72082 -0.0209,-13.08123 -1.72257,4.28588 -3.44513,8.57175 -5.1677,12.85762 -1.29507,-0.39769 -3.70386,0.84753 -4.17312,-0.76837 l -4.92705,-12.3129 c -0.007,4.43493 -0.0149,8.86988 -0.0224,13.30483 h -6.03749 V 127.9819 Z m 78.04016,0 v -11.73956 h 6.93193 v 8.94443 h 8.04053 l 0.1212,-8.83262 c 2.34791,-0.0411 4.69582,-0.0821 7.04374,-0.12323 v 23.49049 h -7.15548 v -8.94442 h -8.04999 v 8.94442 h -6.93193 z"
       id="path1" /><path
       style="font-weight:600;font-size:34.6658px;font-family:'Azeret Mono';-inkscape-font-specification:'Azeret Mono Semi-Bold';fill:#d74339;fill-opacity:1;stroke-width:0.805085"
       d="m 21.057967,131.86799 c 1.178637,0 2.264832,0.2311 3.258585,0.69331 1.016863,0.4391 1.860398,1.03998 2.530603,1.80263 v -8.45846 h 4.714549 v 25.58336 h -4.54122 l -0.103997,-2.18394 c -0.670205,0.78575 -1.51374,1.42129 -2.530603,1.90661 -0.993753,0.46221 -2.103059,0.69332 -3.327917,0.69332 -1.663959,0 -3.143033,-0.4391 -4.437222,-1.3173 -1.29419,-0.90131 -2.311053,-2.10306 -3.05059,-3.60524 -0.739537,-1.5253 -1.109305,-3.22393 -1.109305,-5.09588 0,-1.89506 0.369768,-3.59368 1.109305,-5.09587 0.739537,-1.52529 1.7564,-2.72704 3.05059,-3.60524 1.294189,-0.8782 2.773263,-1.3173 4.437222,-1.3173 z m 1.178637,16.08493 c 1.063085,0 1.999061,-0.31199 2.80793,-0.93598 0.831979,-0.64709 1.432852,-1.50218 1.802621,-2.56527 v -5.1652 c -0.369769,-1.08619 -0.970642,-1.92973 -1.802621,-2.5306 -0.808869,-0.62399 -1.744845,-0.93598 -2.80793,-0.93598 -0.970642,0 -1.837287,0.26577 -2.599935,0.79731 -0.762647,0.50843 -1.351966,1.22486 -1.767956,2.14928 -0.415989,0.90131 -0.623984,1.94129 -0.623984,3.11992 0,1.15553 0.207995,2.1955 0.623984,3.11993 0.41599,0.90131 1.005309,1.61773 1.767956,2.14928 0.762648,0.53154 1.629293,0.79731 2.599935,0.79731 z m 20.265854,3.9519 c -2.056837,0 -3.824793,-0.40443 -5.303868,-1.2133 -1.455963,-0.80887 -2.588379,-1.9644 -3.397248,-3.46658 -0.785758,-1.50219 -1.178637,-3.2817 -1.178637,-5.33854 0,-2.10305 0.392879,-3.89412 1.178637,-5.37319 0.808869,-1.50219 1.964395,-2.64616 3.46658,-3.43192 1.502185,-0.80887 3.316361,-1.2133 5.44253,-1.2133 3.304806,0 5.708301,0.92442 7.210486,2.77326 1.525295,1.84885 2.17239,4.39101 1.941285,7.62648 h -15.42628 v -3.32792 h 10.573068 c -0.09244,-0.99375 -0.543097,-1.79107 -1.351966,-2.39194 -0.785758,-0.62399 -1.779511,-0.93598 -2.981258,-0.93598 -1.779511,0 -3.108367,0.55465 -3.986567,1.66396 -0.85509,1.10931 -1.282635,2.71549 -1.282635,4.81855 0,1.10931 0.19644,2.11461 0.589319,3.01592 0.392879,0.90131 0.959087,1.61774 1.698624,2.14928 0.762647,0.53155 1.698624,0.79732 2.80793,0.79732 1.201747,0 2.218611,-0.30044 3.05059,-0.90131 0.855089,-0.60087 1.375076,-1.37508 1.559961,-2.32261 h 4.749214 c -0.254216,2.17239 -1.213303,3.89412 -2.877261,5.1652 -1.663959,1.27108 -3.824793,1.90662 -6.482504,1.90662 z m 15.227449,-0.41599 -7.071823,-19.20485 h 4.991875 l 3.639909,10.36507 1.247968,4.64522 1.282635,-4.64522 3.570577,-10.36507 h 4.853212 l -7.037157,19.20485 z"
       id="text1"
       aria-label="dev" /><path
       d="m 174.16865,166.24832 c -5.58367,-2.38552 -3.0742,-11.48567 2.88296,-10.96999 3.78054,0.17056 6.99277,4.70843 5.02806,8.18162 -1.22633,2.91748 -5.17241,4.57167 -7.91102,2.78837 z"
       style="fill:#d74339;fill-opacity:1;stroke-width:0.845143"
       id="path1-9" /><path
       style="font-weight:bold;font-size:29.8613px;line-height:0px;font-family:'DejaVu Sans';-inkscape-font-specification:'DejaVu Sans, Bold';fill:#bfd7fc;fill-opacity:1;stroke-width:5.82179"
       d="m 82.459015,142.08715 q 0,1.79343 0.758197,2.82866 0.772778,1.03523 2.085042,1.03523 1.297683,0 2.070461,-1.03523 0.772778,-1.04982 0.772778,-2.82866 0,-1.76427 -0.787359,-2.78492 -0.772777,-1.03523 -2.085041,-1.03523 -1.283103,0 -2.055881,1.03523 -0.758197,1.02065 -0.758197,2.78492 z m 5.978092,4.38879 q -0.437421,1.03523 -1.414329,1.61846 -0.962327,0.56865 -2.26001,0.56865 -2.507883,0 -4.0826,-1.80801 -1.560136,-1.82259 -1.560136,-4.73873 0,-2.91614 1.574717,-4.73873 1.574717,-1.82259 4.068019,-1.82259 1.297683,0 2.26001,0.58323 0.976908,0.58323 1.414329,1.61846 v -1.91008 h 3.047369 v 10.10444 q 1.808008,-0.27704 2.843239,-1.73511 1.035231,-1.47265 1.035231,-3.76182 0,-1.45807 -0.422841,-2.7266 -0.422841,-1.2831 -1.283103,-2.34749 -1.385167,-1.77885 -3.470209,-2.74117 -2.070462,-0.96233 -4.49086,-0.96233 -1.691362,0 -3.236918,0.452 -1.545556,0.43742 -2.85782,1.29768 -2.157945,1.42891 -3.368144,3.70351 -1.195619,2.26001 -1.195619,4.89911 0,2.17253 0.772778,4.0826 0.787358,1.8955 2.26001,3.35357 1.458072,1.42891 3.338984,2.17252 1.895492,0.7582 4.038857,0.7582 1.83717,0 3.67434,-0.68529 1.837169,-0.6853 3.134853,-1.85175 l 1.560136,2.36207 q -1.822589,1.41433 -3.980534,2.15795 -2.143365,0.7582 -4.359634,0.7582 -2.697431,0 -5.088668,-0.96233 -2.391237,-0.94775 -4.257568,-2.77034 -1.866332,-1.82259 -2.843239,-4.21382 -0.976908,-2.40582 -0.976908,-5.16158 0,-2.65368 0.991488,-5.0595 0.991489,-2.40582 2.828659,-4.22841 1.837169,-1.80801 4.272148,-2.7995 2.44956,-0.99148 5.074088,-0.99148 3.26608,0 5.934351,1.25394 2.66827,1.23936 4.461698,3.58685 1.093553,1.42891 1.64762,3.10569 0.568648,1.66221 0.568648,3.49937 0,3.95138 -2.376656,6.13848 -2.376656,2.18711 -6.707128,2.18711 h -0.568648 z"
       id="text2"
       aria-label="@" /></g></svg>
